<svg id="Artific_Logo" data-name="Artific Logo" xmlns="http://www.w3.org/2000/svg" viewBox="0 0 797.62 438.39"><g id="Triangles"><path d="M401.3,156.93c-.63-2-2.39-3.16-3.79-4.55q-49-48.87-98-97.67c-1.28-1.27-2.69-2.42-4.85-4.36l146.8-39.61c-2.63,9.92-5,19-7.45,28.1Q418.87,95.93,403.64,153c-.36,1.37-.2,3.06-1.61,4A1.23,1.23,0,0,0,401.3,156.93Z" transform="translate(-3.38 -10.74)" style="fill:#f05b25"/><path d="M217.4,342.18c-11.73-11.53-23.53-23-35.2-34.6q-35.22-35-70.31-70.13a7.38,7.38,0,0,1-1-1.63.89.89,0,0,0,.08-.6q26-6.87,52-13.75,46.17-12.34,92.31-24.76l1,.3c-.17,1-.26,2-.52,3Q236.84,271,217.9,342.05A.69.69,0,0,0,217.4,342.18Z" transform="translate(-3.38 -10.74)" style="fill:#029246"/><path d="M149.08,90c16.31-4.52,32.6-9.09,48.93-13.54,30.79-8.37,61.61-16.63,92.4-25,3.75-1,5.06-.8,3.84,3.74q-18.6,69.09-36.86,138.25c-.21.8-.28,1.63-.42,2.45l-1.46.08q-45-45-90.09-90c-5.41-5.4-11-10.67-16.44-16Z" transform="translate(-3.38 -10.74)" style="fill:#fab03c"/><path d="M255.51,195.93l1.46-.08c26.64-7.1,53.29-14.15,79.91-21.33,21.49-5.79,42.95-11.72,64.42-17.59a1.23,1.23,0,0,1,.73.11c-1.7,11-5.28,21.57-8.1,32.31q-14.4,55-29.2,109.81c-.35,1.28,0,3.1-1.79,3.8l.11.06q-52.21-52.09-104.44-104.18a23.44,23.44,0,0,0-2.35-1.83l-1-.3A.79.79,0,0,1,255.51,195.93Z" transform="translate(-3.38 -10.74)" style="fill:#8cc640"/><path d="M217.4,342.18a.69.69,0,0,1,.5-.13l145.15-39-.11-.06c.65,1.88-.18,3.57-.64,5.32Q344.11,376.67,326,445.06c-.34,1.26-.79,2.48-1.3,4.07-.95-.8-1.72-1.38-2.4-2.05Q270.94,396,219.66,344.81C218.85,344,218.15,343.06,217.4,342.18Z" transform="translate(-3.38 -10.74)" style="fill:#144fa8"/><path d="M111,235.22a.89.89,0,0,1-.08.6,24.07,24.07,0,0,1-2.71-2q-51.16-51-102.27-102c-.7-.69-1.34-1.43-2.54-2.72,4.46-1.22,8.38-2.31,12.3-3.37q65-17.55,130-35.07c1.11-.3,2.27-.42,3.41-.62l-.1,0c.11,4.07-1.61,7.75-2.62,11.56Q128.74,168.39,111,235.22Z" transform="translate(-3.38 -10.74)" style="fill:#4b4b4b"/></g><g id="Letters"><path d="M670.69,260.69c-8.28,1.83-16.47,4.09-25,4.34-3.8.11-1.7,2.27-1,3.61,4.66,9.43,9,19.11,9.74,29.65,1.24,17.47-2.29,34.09-11.75,49.07A22.77,22.77,0,0,1,629,357.66c-9.08,2.39-17.17-1.37-22.11-10.34-6-10.81-6.94-22.77-7.71-34.75a143.3,143.3,0,0,1,.65-20.87c-5.08,2.38-9.76,4.72-14.56,6.77A38.44,38.44,0,0,1,570.81,302c-12.66.23-17.48-3.91-19.13-16.84l-18.89,10.15A69.68,69.68,0,0,1,519.5,301c-10.46,3.09-19,0-25.28-8.95-4.27-6.13-6.51-13.09-8-20.28-.61-3-1.1-3.54-4-1.94-5.52,3.08-11.27,5.57-17.9,5.45-9.93-.19-15.63-3.94-19.61-13.19-2.51-5.84-3-12.14-4.41-18.76-1.77,1-1.92,2.47-2.37,3.71-5.06,14.06-10.07,28.14-15.15,42.19-.91,2.49-2,4.93-3.11,7.33-1.78,3.8-4.52,6-9.05,5.54s-7.28-2.87-8.83-6.95c-2-5.28-2-10.81-1.65-16.28a261.53,261.53,0,0,1,9.94-57.91c2.23-7.45,3.84-8.19,11.48-8.16,4,0,5.37,1.8,5.36,5.43a142.37,142.37,0,0,0,1,20.58c1.33-2.54,2.71-5,4-7.62a42.85,42.85,0,0,1,10.66-14.29A15.49,15.49,0,0,1,453,212.79c6.81.09,10.56,4,9.72,10.8-.57,4.62-1.69,9.17-2.32,13.79-.74,5.44-2,11.52,3,15.34s10.07.35,15-1.44c4.13-1.49,5.3-3.84,4.93-8.28a91.72,91.72,0,0,1,1.23-22.37c.65-4-.64-5.21-4.25-5.6-4.63-.5-9.21-1.5-13.84-2-4-.39-6.69-1.86-7-6.22-.3-4.87,3.57-5.28,6.71-5.58a75.42,75.42,0,0,1,15.46-.24c4.69.51,6.33-1.07,7.21-5.47a155.4,155.4,0,0,1,13.25-39,55.43,55.43,0,0,1,11.2-15.81c8.65-8.22,19.11-6.94,25.06,3.43,5.33,9.29,5.74,19.28,3,29.49-2.35,8.57-6.36,16.39-10.87,24-1.16,1.95-2.31,3.9-4.29,7.25,9.27,0,17.36.18,25.45-.07,4.72-.15,6.21,2.24,6.27,6.34.06,4.53-2.46,7.62-6.66,7.67-10.33.12-20.67.17-31,0-3-.06-4.53,1.31-6.55,3.31-7.47,7.41-9.29,16.39-8.83,26.38.3,6.46-.67,12.94,0,19.43,1,10.49,8.15,15.43,18.15,12.08,11.52-3.85,21.39-10.57,30.46-18.55,1.45-1.27,1.69-2.82,2.09-4.37,2.82-11.11,5.55-22.25,8.34-33.38,2-7.8,14-13.67,21.42-10.44,2.61,1.14,3,3.4,2.77,5.85-.44,5.52-2.36,10.69-3.77,16-3.32,12.52-7.63,24.84-8.38,37.91-.21,3.7-1.22,8.29,2.7,10.45,3.73,2.06,7.3-.77,10.59-2.65,1.87-1.06,3.51-2.52,5.35-3.65,5-3.06,7.05-7.22,7.67-13.34,2.88-28.32,7.18-56.44,15.75-83.71,3.69-11.75,8-23.29,15.09-33.5,5.69-8.22,12.3-15.45,23-16.86,12.87-1.69,22.59,6.58,23,19.51.43,14.44-5.08,27.33-10.74,40.1-8.85,20-20.27,38.45-33.35,56,13.61,3.84,26.16,1.22,38.24-5.18,2.83-1.51,4.72-3.36,5.25-6.68.46-2.94,1.43-5.8,2.17-8.7,2.21-8.64,12.42-14.3,21.1-11.7,2.75.82,3.45,2.85,3.33,5.41-.25,5.72-2.3,11-3.73,16.49-3.35,12.68-7.75,25.14-8.42,38.4-.18,3.55-1.13,7.9,2.57,10s7-.54,10.16-2.29c.73-.4,1.43-.86,2.16-1.25,6-3.21,8.59-7.29,8.22-14.91-.85-17.71,4.9-33.55,18.78-45.35,9-7.62,19.54-8.94,30.46-4.58a21.11,21.11,0,0,1,10.42,30,13.42,13.42,0,0,1-4.69,5.09,9.54,9.54,0,0,1-9.55.53c-2.68-1.35-2.76-4.32-2.73-7.06l.12-8.49c0-4-2.14-4.91-5.52-3.94-4.49,1.29-7.44,4.52-9.19,8.58a52.74,52.74,0,0,0-3.52,31.77c2.24,11.05,10.68,15.27,21.08,10.8,11.73-5.05,21-13.49,29-23.14,2.93-3.53,4.05-2.75,5.87.63,1.19,2.19,1.83,4.89,4.33,6.22v1c-5.59,5.78-10.11,12.5-16.06,18-8.31,7.64-17.14,14.46-28.53,16.49-12.29,2.19-23.3-.82-31.43-10.72-2.58-3.14-4-2.44-6.67-.71-10.16,6.46-20.66,12.15-33.24,12-9.64-.14-15.19-5.22-16.06-14.79-.8-8.74,1.12-17.21,2.58-25.73,0-.38,0-.75.07-1.13Zm-39.21-37.1c.69-1.5,1.32-3,2.09-4.49,8.45-16,17.84-31.48,25.24-48,2-4.39,3.89-8.85,3.18-13.9-.36-2.52-.75-5.2-3.48-6.11a7.29,7.29,0,0,0-8.14,2.26,16.81,16.81,0,0,0-2.91,4.6c-6.26,15.23-11.77,30.72-14.46,47-1,6.12-3.12,12.22-1.46,18.57l-.27-.15ZM624.79,261A4.5,4.5,0,0,0,623,264.5c-2.25,16.5-3.43,33-2.34,49.69.4,6.13.45,12.29,2,18.3.48,1.93.88,4.16,3.32,4.42s3.94-1.39,5.08-3.36a25.52,25.52,0,0,0,3-8.92c2.17-13.31,1.2-26.5-1.57-39.62C630.72,276.94,629.37,268.74,624.79,261ZM528,163.77c-.27-2.69,0-5.88-3.42-6.93-3.6-1.11-5.08,1.8-6.35,4.25a86.77,86.77,0,0,0-4.34,10,178.28,178.28,0,0,0-7,25.89c-.31,1.51-2.39,3.59.27,4.68,2.32,1,4.27.28,5.67-2.32,4.57-8.45,9.28-16.83,12.62-25.88A39.71,39.71,0,0,0,528,163.77Z" transform="translate(-3.38 -10.74)" style="fill:#fff"/><path d="M704.94,171c10.11,0,16,4.75,16.07,13.07.1,10.15-7.1,16.9-18.08,16.95-10.39,0-16.2-5.06-16.11-14.15C686.92,177.57,694.4,171,704.94,171Z" transform="translate(-3.38 -10.74)" style="fill:#fff"/><path d="M585.65,201c-10.07,0-15.76-5-15.83-13.79-.07-9.54,7.36-16.2,18.11-16.23,10.28,0,16.13,4.88,16.08,13.47C603.94,194.46,596.65,201,585.65,201Z" transform="translate(-3.38 -10.74)" style="fill:#fff"/></g></svg>