<svg id="Artific_Logo" data-name="Artific Logo" xmlns="http://www.w3.org/2000/svg" viewBox="0 0 438.09 438.39"><g id="Triangles"><path d="M407.3,156.93c-.63-2-2.39-3.16-3.79-4.55q-49-48.87-98-97.67c-1.28-1.27-2.69-2.42-4.85-4.36l146.8-39.61c-2.63,9.92-5,19-7.45,28.1Q424.87,95.93,409.64,153c-.36,1.37-.2,3.06-1.61,4A1.23,1.23,0,0,0,407.3,156.93Z" transform="translate(-9.38 -10.74)" style="fill:#f05b25"/><path d="M223.4,342.18c-11.73-11.53-23.53-23-35.2-34.6q-35.22-35-70.31-70.13a7.38,7.38,0,0,1-1-1.63.89.89,0,0,0,.08-.6q26-6.87,52-13.75,46.17-12.34,92.31-24.76l1,.3c-.17,1-.26,2-.52,3Q242.84,271,223.9,342.05A.69.69,0,0,0,223.4,342.18Z" transform="translate(-9.38 -10.74)" style="fill:#029246"/><path d="M155.08,90c16.31-4.52,32.6-9.09,48.93-13.54,30.79-8.37,61.61-16.63,92.4-25,3.75-1,5.06-.8,3.84,3.74q-18.6,69.09-36.86,138.25c-.21.8-.28,1.63-.42,2.45l-1.46.08q-45-45-90.09-90c-5.41-5.4-11-10.67-16.44-16Z" transform="translate(-9.38 -10.74)" style="fill:#fab03c"/><path d="M261.51,195.93l1.46-.08c26.64-7.1,53.29-14.15,79.91-21.33,21.49-5.79,42.95-11.72,64.42-17.59a1.23,1.23,0,0,1,.73.11c-1.7,11-5.28,21.57-8.1,32.31q-14.4,55-29.2,109.81c-.35,1.28,0,3.1-1.79,3.8l.11.06q-52.21-52.09-104.44-104.18a23.44,23.44,0,0,0-2.35-1.83l-1-.3A.79.79,0,0,1,261.51,195.93Z" transform="translate(-9.38 -10.74)" style="fill:#8cc640"/><path d="M223.4,342.18a.69.69,0,0,1,.5-.13l145.15-39-.11-.06c.65,1.88-.18,3.57-.64,5.32Q350.11,376.67,332,445.06c-.34,1.26-.79,2.48-1.3,4.07-.95-.8-1.72-1.38-2.4-2.05Q276.94,396,225.66,344.81C224.85,344,224.15,343.06,223.4,342.18Z" transform="translate(-9.38 -10.74)" style="fill:#144fa8"/><path d="M117,235.22a.89.89,0,0,1-.08.6,24.07,24.07,0,0,1-2.71-2q-51.16-51-102.27-102c-.7-.69-1.34-1.43-2.54-2.72,4.46-1.22,8.38-2.31,12.3-3.37q65-17.55,130-35.07c1.11-.3,2.27-.42,3.41-.62l-.1,0c.11,4.07-1.61,7.75-2.62,11.56Q134.74,168.39,117,235.22Z" transform="translate(-9.38 -10.74)" style="fill:#4b4b4b"/></g></svg>