<svg id="OBJECTS" xmlns="http://www.w3.org/2000/svg" viewBox="0 0 400.47 252.01"><path d="M272,247.55a5.82,5.82,0,0,0-3.53-4,3.64,3.64,0,0,0-4.53,2.05c-1.61-1.35-4.09-.28-5.38,1.38-2.1,2.68-.48,7.06-.13,7.35a2.85,2.85,0,0,0,1.4.25l15.71-.09a19.68,19.68,0,0,0,4.21-.74c2.67-1.06,4.49-5.67,2.77-8-1.17-1.57-3.49-1.91-5.36-1.31a15.15,15.15,0,0,0-5.16,3.07" transform="translate(-4.1 -4.64)" style="fill:#6cdd6c"/><path d="M259.6,255.12a2.65,2.65,0,0,1-1.51-.37c-.61-.5-2.18-5.23.05-8.07a5.63,5.63,0,0,1,3.67-2.17,3.17,3.17,0,0,1,1.89.34,3.74,3.74,0,0,1,1.55-1.47,4.51,4.51,0,0,1,3.37-.31,6.13,6.13,0,0,1,3.61,3.6A15.17,15.17,0,0,1,277,244c1.88-.6,4.53-.39,5.94,1.49a5.09,5.09,0,0,1,.51,4.4,6.62,6.62,0,0,1-3.51,4.37,19.54,19.54,0,0,1-4.37.78l-15.73.09Zm2.61-9.59h-.3a4.67,4.67,0,0,0-3,1.78c-1.84,2.35-.46,6.27-.16,6.67a2.89,2.89,0,0,0,1,.09l15.73-.09a18.8,18.8,0,0,0,4-.7,5.67,5.67,0,0,0,2.89-3.7,4,4,0,0,0-.34-3.49c-1.1-1.47-3.26-1.62-4.79-1.12a14.57,14.57,0,0,0-5,3,.55.55,0,0,1-.48.11.51.51,0,0,1-.35-.35,5.31,5.31,0,0,0-3.2-3.64,3.44,3.44,0,0,0-2.57.24,2.55,2.55,0,0,0-1.3,1.47.51.51,0,0,1-.35.35.55.55,0,0,1-.48-.1A2.09,2.09,0,0,0,262.21,245.53Z" transform="translate(-4.1 -4.64)" style="fill:#50aa50"/><path d="M255.48,247a4.9,4.9,0,0,0-.54,2.81c.05.49.83.49.78,0a4.22,4.22,0,0,1,.43-2.42c.23-.44-.44-.83-.67-.39Z" transform="translate(-4.1 -4.64)" style="fill:#50aa50"/><path d="M253.21,247.58a5.25,5.25,0,0,0-.07,2.64c.11.49.86.29.75-.2a4.48,4.48,0,0,1,.07-2.24.39.39,0,0,0-.75-.2Z" transform="translate(-4.1 -4.64)" style="fill:#50aa50"/><path d="M257.57,246a.39.39,0,0,0,0-.78.39.39,0,0,0,0,.78Z" transform="translate(-4.1 -4.64)" style="fill:#50aa50"/><path d="M259.77,249.76v.69a.39.39,0,0,0,.78,0v-.69a.39.39,0,0,0-.78,0Z" transform="translate(-4.1 -4.64)" style="fill:#50aa50"/><path d="M272.91,251v.34a.39.39,0,0,0,.78,0V251a.39.39,0,0,0-.78,0Z" transform="translate(-4.1 -4.64)" style="fill:#50aa50"/><path d="M271.47,250l.17.17a.39.39,0,0,0,.55-.55l-.17-.17c-.36-.35-.91.2-.55.55Z" transform="translate(-4.1 -4.64)" style="fill:#50aa50"/><path d="M50.45,232.89H24.12a1,1,0,0,1,0-2.08H50.45a1,1,0,1,1,0,2.08Z" transform="translate(-4.1 -4.64)" style="fill:#405b91"/><path d="M282.29,141.57h-.75a1.13,1.13,0,0,0-2.25,0h-.76a1.88,1.88,0,1,1,3.76,0Z" transform="translate(-4.1 -4.64)" style="fill:#fff"/><path d="M285,97.79h-.75a1.13,1.13,0,1,0-2.25,0h-.76a1.88,1.88,0,1,1,3.76,0Z" transform="translate(-4.1 -4.64)" style="fill:#fff"/><path d="M191.38,249.94H155.59l.61-1.44c2.34-5.57,2.59-10.33,2.23-15.78l-.07-1.1,30.17-.09v1a69.78,69.78,0,0,0,2.41,16Zm-32.7-2.07h29.9a79.51,79.51,0,0,1-2.09-14.26l-25.93.08A33.72,33.72,0,0,1,158.68,247.87Z" transform="translate(-4.1 -4.64)" style="fill:#415b91"/><path d="M145.3,233.59c-27.17,0-49.17-.15-50.14-.49-2.33-.83-5.36-4-5.41-6.34-.08-4.95-.3-11.69-.54-19.5-.75-23.54-1.77-55.77-.44-73.61a6.18,6.18,0,0,1,6.13-5.76H95l156.64.23a6.18,6.18,0,0,1,6,6.09c.12,5.21.29,10.53.46,15.93.72,22.6,1.46,46-1,68.06-.1.88-.14,1.84-.19,2.83-.21,4.64-.47,10.41-6.45,11.59C247.54,233.2,189.57,233.59,145.3,233.59Zm-50.39-104a4.51,4.51,0,0,0-4.48,4.21c-1.32,17.75-.3,49.94.44,73.44.25,7.81.46,14.56.55,19.52,0,1.44,2.44,4.13,4.3,4.8,3.34.68,150.59.17,154.42-.55,4.69-.92,4.9-5.55,5.11-10,0-1,.09-2,.19-2.94,2.49-22,1.75-45.29,1-67.83-.18-5.4-.35-10.73-.47-15.94a4.5,4.5,0,0,0-4.4-4.46L95,129.56Z" transform="translate(-4.1 -4.64)" style="fill:#415b91"/><path d="M247.25,133.51l-147.57-.19a4.83,4.83,0,0,0-5.08,4.16c-1.66,19.75.6,61,.93,77.55,0,1.61,2.67,4,4.57,4.64,2.24.7,142.48.17,145.91-.43,6.16-1.07,5.11-7.38,5.62-11.41,2.92-22.81,1.13-47.61.55-69.92A4.78,4.78,0,0,0,247.25,133.51Z" transform="translate(-4.1 -4.64)" style="fill:#b6d0fb;fill-rule:evenodd"/><path d="M204.18,255.62H142.77a3.82,3.82,0,0,1,0-7.63h61.41a3.82,3.82,0,0,1,0,7.63Zm-61.41-6a2.15,2.15,0,0,0,0,4.29h61.41a2.15,2.15,0,0,0,0-4.29Z" transform="translate(-4.1 -4.64)" style="fill:#415b91"/><path d="M100,225.64h0" transform="translate(-4.1 -4.64)" style="fill:#415b91;fill-rule:evenodd"/><path d="M100,227.78c2.76,0,2.76-4.29,0-4.29s-2.76,4.29,0,4.29Z" transform="translate(-4.1 -4.64)" style="fill:#415b91"/><path d="M108.65,225.64h0" transform="translate(-4.1 -4.64)" style="fill:#415b91;fill-rule:evenodd"/><path d="M108.65,227.78c2.76,0,2.76-4.29,0-4.29s-2.76,4.29,0,4.29Z" transform="translate(-4.1 -4.64)" style="fill:#415b91"/><path d="M117.29,225.64h0" transform="translate(-4.1 -4.64)" style="fill:#415b91;fill-rule:evenodd"/><path d="M117.29,227.78c2.76,0,2.76-4.29,0-4.29s-2.76,4.29,0,4.29Z" transform="translate(-4.1 -4.64)" style="fill:#415b91"/><path d="M173.48,131.23h0" transform="translate(-4.1 -4.64)" style="fill:#415b91;fill-rule:evenodd"/><path d="M173.48,132.24a1,1,0,0,0,0-2,1,1,0,0,0,0,2Z" transform="translate(-4.1 -4.64)" style="fill:#415b91"/><polygon points="342.55 246.9 321.39 246.9 329.53 220.17 334.42 220.17 342.55 246.9" style="fill:#b6d0fb"/><rect x="319.65" y="246.9" width="24.65" height="3.05" style="fill:#b6d0fb"/><polygon points="323.43 240.22 321.39 246.9 342.55 246.9 340.52 240.22 323.43 240.22" style="fill:#415b91"/><polygon points="325.46 233.54 338.48 233.54 336.45 226.85 327.5 226.85 325.46 233.54" style="fill:#415b91"/><path d="M355.3,254.43H360V236.25h24.1v18.18h4.69V236.25h5V221.73h-4v-1.34H383v1.34H361.61v-1.34h-6.84v1.34h-4.36v14.52h4.89Zm36.95-31.18v.06l-2.9,11.42h-5.16l2.91-11.48Zm-13.47,11.48h-5.16l2.9-11.48h5.17Zm-10.57,0H363L366,223.25h5.16Zm-12.83-11.48h5.16l-2.91,11.48h-5.16Z" transform="translate(-4.1 -4.64)" style="fill:#b6d0fb"/><path d="M124.38,76.72l1.4-1.41a.72.72,0,0,0,0-1l-1.22-1.23a1,1,0,0,1-.16-1.15l1-2.43a1.06,1.06,0,0,1,.94-.7h1.74a.73.73,0,0,0,.73-.72v-2a.73.73,0,0,0-.73-.73h-1.74a1,1,0,0,1-.94-.7l-1-2.42a1,1,0,0,1,.16-1.16l1.22-1.22a.72.72,0,0,0,0-1l-1.4-1.41a.72.72,0,0,0-1,0l-1.23,1.22a1,1,0,0,1-1.15.17l-2.43-1a1,1,0,0,1-.7-.94V55.1a.73.73,0,0,0-.73-.73h-2a.73.73,0,0,0-.73.73v1.73a1.06,1.06,0,0,1-.7.94l-2.43,1a1,1,0,0,1-1.15-.17l-1.23-1.22a.72.72,0,0,0-1,0l-1.41,1.41a.74.74,0,0,0,0,1L107.67,61a1,1,0,0,1,.16,1.16l-1,2.42a1,1,0,0,1-.93.7h-1.74a.73.73,0,0,0-.73.73v2a.73.73,0,0,0,.73.72h1.74a1,1,0,0,1,.93.7l1,2.43a1,1,0,0,1-.16,1.15l-1.23,1.23a.74.74,0,0,0,0,1l1.41,1.41a.74.74,0,0,0,1,0l1.23-1.23a1,1,0,0,1,1.15-.16l2.43,1a1,1,0,0,1,.7.93V79a.73.73,0,0,0,.73.73h2a.73.73,0,0,0,.73-.73V77.26a1,1,0,0,1,.7-.93l2.43-1a1,1,0,0,1,1.15.16l1.23,1.23A.74.74,0,0,0,124.38,76.72Zm-8.26-3.85a5.82,5.82,0,1,1,5.81-5.82A5.83,5.83,0,0,1,116.12,72.87Z" transform="translate(-4.1 -4.64)" style="fill:#b6d0fb"/><path d="M137.83,82.22,137.48,81a.46.46,0,0,0-.57-.31l-1,.31a.62.62,0,0,1-.68-.25l-1-1.25a.65.65,0,0,1-.1-.72l.5-.94a.46.46,0,0,0-.18-.62l-1.09-.58a.45.45,0,0,0-.61.19l-.51.94a.63.63,0,0,1-.65.31L129.91,78a.64.64,0,0,1-.58-.43l-.31-1a.45.45,0,0,0-.57-.3l-1.18.35a.46.46,0,0,0-.3.57l.31,1a.64.64,0,0,1-.25.68l-1.26,1a.64.64,0,0,1-.71.11l-1-.51a.45.45,0,0,0-.61.18l-.58,1.09a.44.44,0,0,0,.18.61l1,.51a.65.65,0,0,1,.31.66l-.17,1.61a.65.65,0,0,1-.43.59l-1,.31a.45.45,0,0,0-.31.56l.36,1.18a.45.45,0,0,0,.57.3l1-.31a.66.66,0,0,1,.68.25l1,1.26a.64.64,0,0,1,.11.72l-.51.94a.47.47,0,0,0,.19.62l1.09.58a.46.46,0,0,0,.61-.19l.51-1a.63.63,0,0,1,.65-.3l1.62.16a.64.64,0,0,1,.58.43l.31,1a.46.46,0,0,0,.57.3l1.18-.36a.45.45,0,0,0,.3-.56l-.31-1a.65.65,0,0,1,.25-.68l1.25-1a.64.64,0,0,1,.72-.11l.95.51a.44.44,0,0,0,.61-.18l.58-1.09a.44.44,0,0,0-.18-.61l-.95-.51a.65.65,0,0,1-.31-.66l.17-1.62a.65.65,0,0,1,.43-.58l1-.31A.44.44,0,0,0,137.83,82.22Zm-4.52,3.38a3.6,3.6,0,1,1-1.47-4.88A3.6,3.6,0,0,1,133.31,85.6Z" transform="translate(-4.1 -4.64)" style="fill:#b6d0fb"/><path d="M196.72,105h-32.6a1,1,0,0,1,0-2.08h32.6a1,1,0,1,1,0,2.08Z" transform="translate(-4.1 -4.64)" style="fill:#405b91"/><path d="M130.35,119.81H77.7a1,1,0,1,1,0-2.08h52.65a1,1,0,1,1,0,2.08Z" transform="translate(-4.1 -4.64)" style="fill:#405b91"/><path d="M382.83,147.84H330.17a1,1,0,0,1,0-2.07h52.66a1,1,0,1,1,0,2.07Z" transform="translate(-4.1 -4.64)" style="fill:#405b91"/><path d="M403.53,256.66H5.13a1,1,0,0,1,0-2.08h398.4a1,1,0,1,1,0,2.08Z" transform="translate(-4.1 -4.64)" style="fill:#405b91"/><path d="M257.39,92a8.37,8.37,0,0,0-7.21,12.6l.14.23-8.47,8.47a1.5,1.5,0,0,0-.42,1,1.85,1.85,0,0,0,.64,1.29,2,2,0,0,0,1.42.68,1.61,1.61,0,0,0,1-.34l8.45-8.45.23.14a8.41,8.41,0,0,0,4.24,1.15,8.37,8.37,0,1,0,0-16.73Zm0,14.25a5.89,5.89,0,0,1,0-11.77h0a5.89,5.89,0,0,1,0,11.77Z" transform="translate(-4.1 -4.64)" style="fill:#b6d0fb"/><path d="M254.3,101.56h6.05V100H254.3Z" transform="translate(-4.1 -4.64)" style="fill:#b6d0fb"/><path d="M102.08,254.73a1,1,0,0,1-1-1V173.82a1,1,0,0,1,2.08,0V253.7A1,1,0,0,1,102.08,254.73Z" transform="translate(-4.1 -4.64)" style="fill:#405b91"/><path d="M120.64,254.73a1,1,0,0,1-1-1V173.82a1,1,0,0,1,2.07,0V253.7A1,1,0,0,1,120.64,254.73Z" transform="translate(-4.1 -4.64)" style="fill:#405b91"/><path d="M120.64,180.32H102.08a1,1,0,1,1,0-2.07h18.56a1,1,0,1,1,0,2.07Z" transform="translate(-4.1 -4.64)" style="fill:#405b91"/><path d="M120.64,189.44H102.08a1,1,0,1,1,0-2.07h18.56a1,1,0,1,1,0,2.07Z" transform="translate(-4.1 -4.64)" style="fill:#405b91"/><path d="M120.64,198.57H102.08a1,1,0,1,1,0-2.07h18.56a1,1,0,1,1,0,2.07Z" transform="translate(-4.1 -4.64)" style="fill:#405b91"/><path d="M120.64,207.69H102.08a1,1,0,1,1,0-2.07h18.56a1,1,0,1,1,0,2.07Z" transform="translate(-4.1 -4.64)" style="fill:#405b91"/><path d="M120.64,216.82H102.08a1,1,0,1,1,0-2.07h18.56a1,1,0,1,1,0,2.07Z" transform="translate(-4.1 -4.64)" style="fill:#405b91"/><path d="M120.64,225.94H102.08a1,1,0,1,1,0-2.07h18.56a1,1,0,1,1,0,2.07Z" transform="translate(-4.1 -4.64)" style="fill:#405b91"/><path d="M120.64,235.07H102.08a1,1,0,1,1,0-2.07h18.56a1,1,0,1,1,0,2.07Z" transform="translate(-4.1 -4.64)" style="fill:#405b91"/><path d="M120.64,244.19H102.08a1,1,0,1,1,0-2.07h18.56a1,1,0,1,1,0,2.07Z" transform="translate(-4.1 -4.64)" style="fill:#405b91"/><path d="M76.8,177.7a1,1,0,0,1-1-1v-4a1,1,0,0,1,2.07,0v4A1,1,0,0,1,76.8,177.7Z" transform="translate(-4.1 -4.64)" style="fill:#405b91"/><path d="M78.82,175.68h-4a1,1,0,0,1,0-2.07h4a1,1,0,1,1,0,2.07Z" transform="translate(-4.1 -4.64)" style="fill:#405b91"/><path d="M170.07,33.26a1,1,0,0,1-1-1v-4a1,1,0,1,1,2.08,0v4A1,1,0,0,1,170.07,33.26Z" transform="translate(-4.1 -4.64)" style="fill:#405b91"/><path d="M172.09,31.24h-4a1,1,0,1,1,0-2.07h4a1,1,0,1,1,0,2.07Z" transform="translate(-4.1 -4.64)" style="fill:#405b91"/><path d="M202.76,242.33a1.35,1.35,0,0,1-.28,0l-3.88-1.11a1,1,0,0,1-.72-1.28,1.05,1.05,0,0,1,1.28-.72l3.89,1.11a1,1,0,0,1,.71,1.28A1,1,0,0,1,202.76,242.33Z" transform="translate(-4.1 -4.64)" style="fill:#405b91"/><path d="M200.27,243.71a1.43,1.43,0,0,1-.29,0,1,1,0,0,1-.71-1.29l1.11-3.88a1,1,0,0,1,2,.57L201.26,243A1,1,0,0,1,200.27,243.71Z" transform="translate(-4.1 -4.64)" style="fill:#405b91"/><path d="M182.36,120.36a.9.9,0,0,1-.28,0l-3.88-1.11a1,1,0,1,1,.57-2l3.88,1.11a1,1,0,0,1,.71,1.28A1,1,0,0,1,182.36,120.36Z" transform="translate(-4.1 -4.64)" style="fill:#405b91"/><path d="M179.87,121.75a1.45,1.45,0,0,1-.29,0,1,1,0,0,1-.71-1.28l1.11-3.89a1,1,0,1,1,2,.57L180.86,121A1,1,0,0,1,179.87,121.75Z" transform="translate(-4.1 -4.64)" style="fill:#405b91"/><circle cx="179.64" cy="82.14" r="14.41" transform="translate(-9.56 146.44) rotate(-45)" style="fill:#b6d0fb"/><circle cx="175.55" cy="77.5" r="10.79" style="fill:#fff"/><path d="M179.64,93.35a11.21,11.21,0,1,1,11.21-11.21A11.22,11.22,0,0,1,179.64,93.35Zm0-21.58A10.38,10.38,0,1,0,190,82.14,10.38,10.38,0,0,0,179.64,71.77Z" transform="translate(-4.1 -4.64)" style="fill:#405b91"/><path d="M179.64,82.56a.41.41,0,0,1-.41-.42V76.65a.41.41,0,0,1,.41-.42.42.42,0,0,1,.42.42v5.49A.42.42,0,0,1,179.64,82.56Z" transform="translate(-4.1 -4.64)" style="fill:#405b91"/><path d="M186.08,82.56h-6.44a.42.42,0,0,1,0-.84h6.44a.42.42,0,1,1,0,.84Z" transform="translate(-4.1 -4.64)" style="fill:#405b91"/><path d="M180.07,72.57a.43.43,0,1,1-.43-.43A.42.42,0,0,1,180.07,72.57Z" transform="translate(-4.1 -4.64)" style="fill:#405b91"/><circle cx="182.32" cy="70.73" r="0.43" style="fill:#405b91"/><path d="M189.22,82.57a.43.43,0,0,1-.43-.43.43.43,0,1,1,.85,0A.42.42,0,0,1,189.22,82.57Z" transform="translate(-4.1 -4.64)" style="fill:#405b91"/><circle cx="182.32" cy="84.27" r="0.43" style="fill:#405b91"/><path d="M179.22,91.71a.43.43,0,0,1,.85,0,.43.43,0,1,1-.85,0Z" transform="translate(-4.1 -4.64)" style="fill:#405b91"/><path d="M172.57,88.61a.43.43,0,0,1,.61,0,.43.43,0,0,1,0,.6.43.43,0,0,1-.61,0A.43.43,0,0,1,172.57,88.61Z" transform="translate(-4.1 -4.64)" style="fill:#405b91"/><circle cx="165.97" cy="77.5" r="0.43" style="fill:#405b91"/><path d="M173.18,75.07a.43.43,0,0,1,0,.6.43.43,0,0,1-.61,0,.43.43,0,0,1,0-.6A.43.43,0,0,1,173.18,75.07Z" transform="translate(-4.1 -4.64)" style="fill:#405b91"/><path d="M200.72,76.64h-6.05a.42.42,0,0,1,0-.84h6.05a.42.42,0,1,1,0,.84Z" transform="translate(-4.1 -4.64)" style="fill:#405b91"/><path d="M200.72,88.48h-6.05a.42.42,0,0,1,0-.84h6.05a.42.42,0,1,1,0,.84Z" transform="translate(-4.1 -4.64)" style="fill:#405b91"/><path d="M208.24,82.56h-11.3a.42.42,0,0,1,0-.84h11.3a.42.42,0,1,1,0,.84Z" transform="translate(-4.1 -4.64)" style="fill:#405b91"/><rect x="217.17" y="233.54" width="6.68" height="6.68" style="fill:#fff"/><path d="M228.47,245.38h-7.72v-7.72h7.72Zm-6.68-1h5.65V238.7h-5.65Z" transform="translate(-4.1 -4.64)" style="fill:#415b91"/><path d="M236.41,239.65h-6a.42.42,0,0,1-.42-.42.41.41,0,0,1,.42-.41h6a.41.41,0,0,1,.42.41A.42.42,0,0,1,236.41,239.65Z" transform="translate(-4.1 -4.64)" style="fill:#405b91"/><path d="M238.68,244.23h-8.17c-.31,0-.57-.19-.57-.42s.26-.42.57-.42h8.17c.32,0,.57.19.57.42S239,244.23,238.68,244.23Z" transform="translate(-4.1 -4.64)" style="fill:#405b91"/><path d="M241.66,241.81h-11.3a.42.42,0,0,1-.42-.42.41.41,0,0,1,.42-.41h11.3a.41.41,0,0,1,.42.41A.42.42,0,0,1,241.66,241.81Z" transform="translate(-4.1 -4.64)" style="fill:#405b91"/><rect x="74.55" y="140.13" width="6.68" height="6.68" transform="translate(151.68 282.29) rotate(180)" style="fill:#fff"/><path d="M81.75,147.33H74v-7.72h7.72Zm-6.68-1h5.64v-5.65H75.07Z" transform="translate(-4.1 -4.64)" style="fill:#415b91"/><path d="M66.09,141.59h6a.41.41,0,0,0,.42-.41.42.42,0,0,0-.42-.42h-6a.42.42,0,0,0-.42.42A.41.41,0,0,0,66.09,141.59Z" transform="translate(-4.1 -4.64)" style="fill:#405b91"/><path d="M63.82,146.17H72c.32,0,.57-.18.57-.41s-.25-.42-.57-.42H63.82c-.31,0-.57.19-.57.42S63.51,146.17,63.82,146.17Z" transform="translate(-4.1 -4.64)" style="fill:#405b91"/><path d="M60.84,143.76h11.3a.42.42,0,0,0,0-.84H60.84a.42.42,0,0,0,0,.84Z" transform="translate(-4.1 -4.64)" style="fill:#405b91"/><rect x="274.24" y="160.59" width="2.07" height="89.19" style="fill:#3f5b91"/><rect x="268.9" y="150.83" width="12.76" height="20.55" rx="6.15" style="fill:#b6d0fb"/><path d="M287.73,170.06l2.19.35c.49.08.7-.67.2-.75l-2.18-.35c-.49-.08-.7.67-.21.75Z" transform="translate(-4.1 -4.64)" style="fill:#3f5b91"/><path d="M287.65,165.31a5.85,5.85,0,0,1,1.72-.06c.5,0,.5-.74,0-.78a6.87,6.87,0,0,0-1.92.09c-.5.08-.29.83.2.75Z" transform="translate(-4.1 -4.64)" style="fill:#3f5b91"/><path d="M287.42,161l1.67-.67c.46-.18.26-.94-.2-.75l-1.68.67c-.46.18-.26.93.21.75Z" transform="translate(-4.1 -4.64)" style="fill:#3f5b91"/><path d="M268.35,170.78a8.65,8.65,0,0,0,1.67-.4c.47-.16.27-.91-.2-.75a8.93,8.93,0,0,1-1.68.4c-.5.07-.29.82.21.75Z" transform="translate(-4.1 -4.64)" style="fill:#3f5b91"/><path d="M267.34,165.25a8.44,8.44,0,0,1,2.11.33.39.39,0,0,0,.2-.75,9.1,9.1,0,0,0-2.31-.35c-.51,0-.5.76,0,.77Z" transform="translate(-4.1 -4.64)" style="fill:#3f5b91"/><path d="M268,158.86l1.68.53c.48.15.69-.6.21-.75l-1.68-.53c-.48-.16-.68.59-.21.75Z" transform="translate(-4.1 -4.64)" style="fill:#3f5b91"/><polygon points="270.44 250.99 271.82 239.07 278.56 239.07 280.12 250.82 270.44 250.99" style="fill:#405b91"/><path d="M84.2,198.56c-.3-1.89-1.65-6.79-4.6-5.24-4.78,2.51,1,12-4.78,13.7-.3-3.79-1.12-6.4-2.83-6.25-3.53.32-2.59,8.54-2.65,10.38s-.15,3.73-.23,5.64c-4.16.74-3.34-10.09-5.86-11.59-3.93-2.33-4.77,2.86-4.66,5.26.18,4.08,1.28,9,5.12,11.14A10.39,10.39,0,0,0,68.94,223a54.33,54.33,0,0,0,.66,9.61s.06,0,.06,0h0l2.33.13v0a.8.8,0,0,0,1.59,0c0-2,1.24-11.64,1.38-19.84a8.41,8.41,0,0,0,5.54-1.57C84.47,208.42,84.93,203.07,84.2,198.56Z" transform="translate(-4.1 -4.64)" style="fill:#6cdd6c"/><path d="M72.77,234a1.32,1.32,0,0,1-.67-.18,1.12,1.12,0,0,1-.5-.65l-1.72-.1-.62,0-.1-.39a53.23,53.23,0,0,1-.67-9.22,11.45,11.45,0,0,1-5-1.45c-4.09-2.31-5.16-7.53-5.34-11.5-.07-1.6.26-4.9,2.05-6a3.08,3.08,0,0,1,3.27.31c1.22.72,1.69,3,2.23,5.52.73,3.49,1.38,6,3,6l0-.85c.07-1.48.13-2.95.18-4.39,0-.28,0-.71,0-1.25-.11-3.23-.32-9.25,3.08-9.56a1.88,1.88,0,0,1,1.42.46c.94.79,1.55,2.64,1.84,5.62,2.15-1,2-3.44,1.91-6.29s-.26-5.86,2.27-7.19a2.47,2.47,0,0,1,2.34-.1c2.11,1.06,2.83,5.19,2.91,5.66h0c.56,3.46.8,9.77-3.88,13.2a9.21,9.21,0,0,1-5.36,1.69c-.12,5.36-.67,11.25-1,15.19-.18,2-.33,3.53-.34,4.17a1.19,1.19,0,0,1-.6,1A1.49,1.49,0,0,1,72.77,234ZM70,232.14l2.47.14v.43c0,.2.07.27.13.3a.44.44,0,0,0,.43,0,.28.28,0,0,0,.15-.28c0-.67.15-2.17.34-4.24.38-4,1-10.15,1-15.6v-.5l.5.07A8,8,0,0,0,80.24,211c4.29-3.15,4.05-9.08,3.53-12.34h0c-.23-1.43-1-4.31-2.44-5a1.62,1.62,0,0,0-1.53.09c-2,1.07-1.92,3.65-1.8,6.37.14,3,.29,6.39-3,7.36l-.52.16-.05-.54c-.3-3.78-1-5.13-1.58-5.6a1,1,0,0,0-.77-.25c-2.57.23-2.37,5.92-2.27,8.65,0,.56,0,1,0,1.31,0,1.44-.11,2.91-.18,4.4l-.07,1.59-.35.06c-2.84.51-3.64-3.32-4.35-6.69-.45-2.18-.92-4.43-1.81-4.95a2.27,2.27,0,0,0-2.37-.31c-1.31.79-1.69,3.59-1.62,5.17.17,3.75,1.15,8.66,4.89,10.77a9.94,9.94,0,0,0,5,1.32l.48,0V223A55.2,55.2,0,0,0,70,232.14Z" transform="translate(-4.1 -4.64)" style="fill:#50aa50"/><path d="M79.63,254.62H62.75a1.79,1.79,0,0,1-1.8-1.47l-3.83-19.67,1.59-.32,3.84,19.68a.18.18,0,0,0,.2.16H79.63a.18.18,0,0,0,.2-.16l3.8-19.67,1.59.3-3.8,19.68A1.78,1.78,0,0,1,79.63,254.62Z" transform="translate(-4.1 -4.64)" style="fill:#415b91"/><path d="M57.29,227.14h28c.47,0,.87.53.87,1.18v4.26c0,.64-.4,1.17-.87,1.17h-28c-.47,0-.86-.53-.86-1.17v-4.26C56.43,227.67,56.82,227.14,57.29,227.14Z" transform="translate(-4.1 -4.64)" style="fill:#b6d0fb"/><path d="M85.32,234.19h-28A1.49,1.49,0,0,1,56,232.58v-4.26a1.5,1.5,0,0,1,1.31-1.62h28a1.5,1.5,0,0,1,1.31,1.62v4.26A1.49,1.49,0,0,1,85.32,234.19Zm-28-6.61c-.2,0-.42.32-.42.74v4.26c0,.42.22.73.42.73h28c.2,0,.42-.31.42-.73v-4.26c0-.42-.22-.74-.42-.74Z" transform="translate(-4.1 -4.64)" style="fill:#405b91"/><path d="M85.32,234.12h-28a1.41,1.41,0,0,1-1.23-1.54v-4.26a1.42,1.42,0,0,1,1.23-1.55h28a1.42,1.42,0,0,1,1.23,1.55v4.26A1.41,1.41,0,0,1,85.32,234.12Zm-28-6.61c-.23,0-.5.33-.5.81v4.26c0,.47.27.8.5.8h28c.23,0,.5-.33.5-.8v-4.26c0-.48-.27-.81-.5-.81Z" transform="translate(-4.1 -4.64)" style="fill:#b6d0fb"/><path d="M85.32,234.56h-28a1.86,1.86,0,0,1-1.68-2v-4.26a1.86,1.86,0,0,1,1.68-2h28a1.86,1.86,0,0,1,1.68,2v4.26A1.86,1.86,0,0,1,85.32,234.56Zm-28-6.61a.6.6,0,0,0-.1.37v4.26a.57.57,0,0,0,.12.38l28,0s.05-.14.05-.36v-4.26a.52.52,0,0,0-.12-.38Z" transform="translate(-4.1 -4.64)" style="fill:#405b91"/><path d="M60.35,210.41l1.38.18c.5.06.49-.71,0-.78l-1.38-.17c-.5-.07-.49.71,0,.77Z" transform="translate(-4.1 -4.64)" style="fill:#50aa50"/><path d="M62.38,204.3V205a.39.39,0,0,0,.78,0v-.69a.39.39,0,0,0-.78,0Z" transform="translate(-4.1 -4.64)" style="fill:#50aa50"/><path d="M65.07,211.43l1-.56a.39.39,0,0,0-.4-.68l-1,.57c-.44.24,0,.91.39.67Z" transform="translate(-4.1 -4.64)" style="fill:#50aa50"/><path d="M61.08,220.38l1.22-.85c.4-.29,0-1-.4-.67l-1.21.85c-.41.28,0,1,.39.67Z" transform="translate(-4.1 -4.64)" style="fill:#50aa50"/><path d="M58.16,213.69,59,214c.47.18.67-.57.21-.75l-.87-.34c-.47-.18-.67.57-.21.75Z" transform="translate(-4.1 -4.64)" style="fill:#50aa50"/><path d="M63.81,217.3a.59.59,0,0,1,.41.24c.32.39.86-.17.55-.55a1.33,1.33,0,0,0-1-.47c-.5,0-.5.75,0,.78Z" transform="translate(-4.1 -4.64)" style="fill:#50aa50"/><path d="M65.52,221a2.56,2.56,0,0,0,.19,1.52c.19.46.86.06.67-.4a1.57,1.57,0,0,1-.11-.91c.07-.49-.68-.7-.75-.21Z" transform="translate(-4.1 -4.64)" style="fill:#50aa50"/><path d="M69.58,221.1l.69.19a.39.39,0,0,0,.2-.75l-.68-.19a.39.39,0,0,0-.21.75Z" transform="translate(-4.1 -4.64)" style="fill:#50aa50"/><path d="M72.06,213.46a1.3,1.3,0,0,0,.47,1.13c.38.32.93-.23.55-.55a.61.61,0,0,1-.24-.58c0-.5-.73-.5-.78,0Z" transform="translate(-4.1 -4.64)" style="fill:#50aa50"/><path d="M71.08,207.9a1.21,1.21,0,0,0-.21,1c.09.49.84.29.75-.2a.45.45,0,0,1,.13-.4c.29-.4-.38-.79-.67-.39Z" transform="translate(-4.1 -4.64)" style="fill:#50aa50"/><path d="M75.35,210.17v.7a.39.39,0,0,0,.77,0v-.7a.39.39,0,0,0-.77,0Z" transform="translate(-4.1 -4.64)" style="fill:#50aa50"/><path d="M68.11,209c.17.12.34.24.52.35.41.28.8-.39.39-.67l-.52-.35c-.42-.28-.81.4-.39.67Z" transform="translate(-4.1 -4.64)" style="fill:#50aa50"/><path d="M69.41,202.5a1,1,0,0,1,.24.59c0,.49.82.5.78,0A1.91,1.91,0,0,0,70,202c-.33-.38-.88.17-.55.55Z" transform="translate(-4.1 -4.64)" style="fill:#50aa50"/><path d="M71.37,200.15v1a.39.39,0,0,0,.78,0v-1a.39.39,0,0,0-.78,0Z" transform="translate(-4.1 -4.64)" style="fill:#50aa50"/><path d="M76.18,204.72l.34.35c.34.37.89-.18.55-.55l-.34-.35c-.35-.36-.9.19-.55.55Z" transform="translate(-4.1 -4.64)" style="fill:#50aa50"/><path d="M77,200.08l1,.06c.5,0,.49-.75,0-.78l-1-.05c-.5,0-.5.75,0,.77Z" transform="translate(-4.1 -4.64)" style="fill:#50aa50"/><path d="M78.05,193.86l.69.69c.36.35.91-.2.55-.55l-.69-.69c-.35-.36-.9.19-.55.55Z" transform="translate(-4.1 -4.64)" style="fill:#50aa50"/><path d="M81.05,191.85v1.21a.39.39,0,0,0,.78,0v-1.21a.39.39,0,0,0-.78,0Z" transform="translate(-4.1 -4.64)" style="fill:#50aa50"/><path d="M82.46,199.13l.34-.52c.28-.42-.39-.81-.67-.39l-.34.52c-.28.42.4.81.67.39Z" transform="translate(-4.1 -4.64)" style="fill:#50aa50"/><path d="M79.82,206.77l.87-.34c.46-.18.26-.93-.21-.75l-.86.34c-.46.18-.26.93.2.75Z" transform="translate(-4.1 -4.64)" style="fill:#50aa50"/><path d="M83.27,205.68l.86-.17c.49-.11.28-.86-.21-.75l-.86.17c-.49.11-.28.86.21.75Z" transform="translate(-4.1 -4.64)" style="fill:#50aa50"/><path d="M81.05,209.31v.17a.39.39,0,0,0,.78,0v-.17a.39.39,0,0,0-.78,0Z" transform="translate(-4.1 -4.64)" style="fill:#50aa50"/><path d="M74.37,221.22l.52-.35c.41-.27,0-1-.39-.67l-.52.35c-.42.27,0,.95.39.67Z" transform="translate(-4.1 -4.64)" style="fill:#50aa50"/><path d="M73.92,224.09a2.16,2.16,0,0,1,1.06-.57c.48-.11.28-.86-.21-.75a2.94,2.94,0,0,0-1.4.77c-.36.34.19.89.55.55Z" transform="translate(-4.1 -4.64)" style="fill:#50aa50"/><path d="M70.71,224.55l.18.35c.23.44.9,0,.67-.39-.06-.12-.12-.23-.17-.35-.23-.44-.9,0-.68.39Z" transform="translate(-4.1 -4.64)" style="fill:#50aa50"/><path d="M67.75,225.39a2,2,0,0,0,1.35.19c.49-.1.28-.85-.21-.75a1.09,1.09,0,0,1-.75-.11c-.44-.23-.83.44-.39.67Z" transform="translate(-4.1 -4.64)" style="fill:#50aa50"/><path d="M74.18,218l1.56-.19c.49-.06.49-.84,0-.78l-1.56.2c-.49.06-.49.84,0,.77Z" transform="translate(-4.1 -4.64)" style="fill:#50aa50"/><path d="M143.84,183.93,169,161.22c1.24-1.12-.6-2.95-1.84-1.83L142,182.09c-1.24,1.13.6,3,1.83,1.84Z" transform="translate(-4.1 -4.64)" style="fill:#d7e7ff"/><path d="M172.23,195.51l25.11-22.71c1.24-1.12-.6-3-1.83-1.83l-25.12,22.71c-1.24,1.12.6,2.95,1.84,1.83Z" transform="translate(-4.1 -4.64)" style="fill:#d7e7ff"/><path d="M141.38,204.09,194,152.76c1.2-1.17-.64-3-1.83-1.83l-52.64,51.32c-1.2,1.17.64,3,1.83,1.84Z" transform="translate(-4.1 -4.64)" style="fill:#d7e7ff"/><rect x="216.61" y="39.84" width="1.13" height="72.44" style="fill:#415b91"/><path d="M225.87,116.92a4.6,4.6,0,1,1-4.6-4.6A4.6,4.6,0,0,1,225.87,116.92Z" transform="translate(-4.1 -4.64)" style="fill:#415b91"/><path d="M221.34,132.34a3.78,3.78,0,0,1-3.78-4.12.61.61,0,0,1,1.22,0,3,3,0,0,0,.74,2.16,2.92,2.92,0,0,0,1.82.75,3.11,3.11,0,0,0,0-6.22.61.61,0,0,1-.61-.61v-3.38a.61.61,0,0,1,.61-.61.61.61,0,0,1,.61.61v2.81a4.33,4.33,0,0,1-.61,8.61Z" transform="translate(-4.1 -4.64)" style="fill:#415b91"/><path d="M197.19,135.18a.57.57,0,0,1,0-1.12l24.89-3.66a.56.56,0,0,1,.17,1.11l-24.89,3.67Z" transform="translate(-4.1 -4.64)" style="fill:#415b91"/><path d="M245,143.46a.49.49,0,0,1-.17-.06l-22.89-12a.56.56,0,0,1-.23-.76.57.57,0,0,1,.76-.24l22.88,12a.56.56,0,0,1,.24.76A.55.55,0,0,1,245,143.46Z" transform="translate(-4.1 -4.64)" style="fill:#415b91"/><rect x="179.87" y="138.93" width="73.61" height="47.36" rx="5.87" transform="translate(26.94 -39.34) rotate(9.86)" style="fill:#fff"/><path d="M243.93,192.07a6.8,6.8,0,0,1-1.18-.1l-60.53-10.52a6.86,6.86,0,0,1-5.58-7.94l6-34.67a6.88,6.88,0,0,1,7.94-5.59l60.52,10.52a6.86,6.86,0,0,1,5.59,7.94l-6,34.67A6.88,6.88,0,0,1,243.93,192.07Zm-54.51-57.36a5.32,5.32,0,0,0-5.23,4.4l-6,34.67a5.32,5.32,0,0,0,4.32,6.14L243,190.43a5.31,5.31,0,0,0,6.14-4.32l6-34.67a5.32,5.32,0,0,0-4.32-6.14l-60.53-10.51A4.67,4.67,0,0,0,189.42,134.71Z" transform="translate(-4.1 -4.64)" style="fill:#415b91"/><rect x="183.09" y="142.6" width="67.17" height="40.03" rx="3.75" transform="translate(26.94 -39.34) rotate(9.86)" style="fill:#b6d0fb"/><path d="M243.18,188.25a4.43,4.43,0,0,1-.81-.07L183.86,178a4.66,4.66,0,0,1-3.8-5.39l5.52-31.78A4.68,4.68,0,0,1,191,137l58.51,10.17a4.67,4.67,0,0,1,3.8,5.4l-5.52,31.77a4.66,4.66,0,0,1-4.59,3.87Zm-.54-1.6a3.14,3.14,0,0,0,2.32-.52,3.1,3.1,0,0,0,1.27-2l5.53-31.78a3.12,3.12,0,0,0-2.54-3.6l-58.51-10.17a3.13,3.13,0,0,0-3.6,2.54l-5.52,31.77a3.15,3.15,0,0,0,.52,2.33,3.09,3.09,0,0,0,2,1.27Z" transform="translate(-4.1 -4.64)" style="fill:#405b91"/><polygon points="210.66 177.95 225.87 164.01 234.29 182.05 210.66 177.95" style="fill:#fff"/><path d="M239.27,187.38l-25.64-4.46,16.51-15.13Zm-23.39-5.12L237.49,186l-7.7-16.51Z" transform="translate(-4.1 -4.64)" style="fill:#415b91"/><polygon points="180.58 172.72 207.55 148 222.47 180 180.58 172.72" style="fill:#fff"/><path d="M227.46,185.33l-43.91-7.63,28.26-25.91ZM185.8,177,225.68,184l-14.21-30.45Z" transform="translate(-4.1 -4.64)" style="fill:#415b91"/><path d="M243.71,157.34a3.77,3.77,0,1,1-3.07-4.37A3.78,3.78,0,0,1,243.71,157.34Z" transform="translate(-4.1 -4.64)" style="fill:#fff"/><path d="M240,161a4.71,4.71,0,0,1-.74-.06,4.29,4.29,0,0,1-3.49-5,4.29,4.29,0,1,1,4.23,5Zm0-7.54a3.25,3.25,0,0,0-2.66,5.12,3.27,3.27,0,0,0,4.54.79,3.24,3.24,0,0,0,1.33-2.1h0a3.25,3.25,0,0,0-2.65-3.76A2.65,2.65,0,0,0,240,153.44Z" transform="translate(-4.1 -4.64)" style="fill:#415b91"/><rect x="207.28" y="37.4" width="56.53" height="6.22" style="fill:#b6d0fb"/><path d="M317,170.65H298.26V4.73H317Zm-16.91-1.86h15.05V6.58H300.12Z" transform="translate(-4.1 -4.64)" style="fill:#415b91"/><path d="M316.79,22.94H298.5V4.64h18.29Zm-16.41-1.88h14.53V6.53H300.38Z" transform="translate(-4.1 -4.64)" style="fill:#415b91"/><rect x="306.7" y="2.19" width="1.88" height="23.21" transform="translate(76.26 216.93) rotate(-45)" style="fill:#415b91"/><rect x="296.04" y="12.85" width="23.21" height="1.88" transform="translate(76.26 216.93) rotate(-45)" style="fill:#415b91"/><path d="M316.79,39.35H298.5V21.06h18.29Zm-16.41-1.88h14.53V22.94H300.38Z" transform="translate(-4.1 -4.64)" style="fill:#415b91"/><rect x="306.7" y="18.6" width="1.88" height="23.21" transform="translate(64.65 221.74) rotate(-45)" style="fill:#415b91"/><rect x="296.04" y="29.27" width="23.21" height="1.88" transform="translate(64.65 221.74) rotate(-45)" style="fill:#415b91"/><path d="M316.79,55.77H298.5V37.47h18.29Zm-16.41-1.88h14.53V39.35H300.38Z" transform="translate(-4.1 -4.64)" style="fill:#415b91"/><rect x="306.7" y="35.01" width="1.88" height="23.21" transform="translate(53.04 226.55) rotate(-45)" style="fill:#415b91"/><rect x="296.04" y="45.68" width="23.21" height="1.88" transform="translate(53.05 226.56) rotate(-45)" style="fill:#415b91"/><path d="M316.79,72.18H298.5V53.89h18.29ZM300.38,70.3h14.53V55.77H300.38Z" transform="translate(-4.1 -4.64)" style="fill:#415b91"/><rect x="306.7" y="51.43" width="1.88" height="23.21" transform="translate(41.44 231.35) rotate(-45)" style="fill:#415b91"/><rect x="296.04" y="62.09" width="23.21" height="1.88" transform="translate(41.44 231.35) rotate(-45)" style="fill:#415b91"/><path d="M316.79,88.6H298.5V70.3h18.29Zm-16.41-1.88h14.53V72.18H300.38Z" transform="translate(-4.1 -4.64)" style="fill:#415b91"/><rect x="306.7" y="67.84" width="1.88" height="23.21" transform="translate(29.83 236.16) rotate(-45)" style="fill:#415b91"/><rect x="296.04" y="78.51" width="23.21" height="1.88" transform="translate(29.84 236.17) rotate(-45)" style="fill:#415b91"/><path d="M316.79,105H298.5V86.72h18.29Zm-16.41-1.88h14.53V88.6H300.38Z" transform="translate(-4.1 -4.64)" style="fill:#415b91"/><rect x="306.7" y="84.26" width="1.88" height="23.21" transform="translate(18.22 240.97) rotate(-45)" style="fill:#415b91"/><rect x="296.04" y="94.92" width="23.21" height="1.88" transform="translate(18.23 240.98) rotate(-45)" style="fill:#415b91"/><path d="M316.79,121.43H298.5v-18.3h18.29Zm-16.41-1.89h14.53V105H300.38Z" transform="translate(-4.1 -4.64)" style="fill:#415b91"/><rect x="306.7" y="100.67" width="1.88" height="23.21" transform="translate(6.62 245.78) rotate(-45)" style="fill:#415b91"/><rect x="296.04" y="111.34" width="23.21" height="1.88" transform="translate(6.62 245.79) rotate(-45)" style="fill:#415b91"/><path d="M316.79,137.84H298.5v-18.3h18.29ZM300.38,136h14.53V121.43H300.38Z" transform="translate(-4.1 -4.64)" style="fill:#415b91"/><rect x="306.7" y="117.09" width="1.88" height="23.21" transform="translate(-4.99 250.58) rotate(-45)" style="fill:#415b91"/><rect x="296.04" y="127.75" width="23.21" height="1.88" transform="translate(-4.98 250.6) rotate(-45)" style="fill:#415b91"/><path d="M316.79,154.25H298.5V136h18.29Zm-16.41-1.88h14.53V137.84H300.38Z" transform="translate(-4.1 -4.64)" style="fill:#415b91"/><rect x="306.7" y="133.5" width="1.88" height="23.21" transform="translate(-16.6 255.39) rotate(-45)" style="fill:#415b91"/><rect x="296.04" y="144.17" width="23.21" height="1.88" transform="translate(-16.59 255.4) rotate(-45)" style="fill:#415b91"/><path d="M316.79,170.67H298.5v-18.3h18.29Zm-16.41-1.88h14.53V154.25H300.38Z" transform="translate(-4.1 -4.64)" style="fill:#415b91"/><rect x="306.7" y="149.91" width="1.88" height="23.21" transform="translate(-28.2 260.2) rotate(-45)" style="fill:#415b91"/><rect x="296.04" y="160.58" width="23.21" height="1.88" transform="translate(-28.22 260.14) rotate(-44.99)" style="fill:#415b91"/><path d="M349.45,39.11H331.16V20.81h18.29ZM333,37.23h14.53V22.69H333Z" transform="translate(-4.1 -4.64)" style="fill:#415b91"/><rect x="328.7" y="29.02" width="23.21" height="1.88" transform="translate(74.43 244.81) rotate(-45.01)" style="fill:#415b91"/><rect x="339.36" y="18.35" width="1.88" height="23.21" transform="translate(74.39 244.76) rotate(-45)" style="fill:#415b91"/><path d="M333,39.11h-18.3V20.81H333Zm-16.42-1.88h14.54V22.69H316.62Z" transform="translate(-4.1 -4.64)" style="fill:#415b91"/><rect x="312.28" y="29.02" width="23.21" height="1.88" transform="translate(69.62 233.2) rotate(-45.01)" style="fill:#415b91"/><rect x="322.95" y="18.35" width="1.88" height="23.21" transform="translate(69.58 233.15) rotate(-45)" style="fill:#415b91"/><path d="M316.62,39.11H298.33V20.81h18.29Zm-16.41-1.88h14.53V22.69H300.21Z" transform="translate(-4.1 -4.64)" style="fill:#415b91"/><path d="M300.21,39.11h-18.3V20.81h18.3Zm-16.42-1.88h14.54V22.69H283.79Z" transform="translate(-4.1 -4.64)" style="fill:#415b91"/><rect x="279.46" y="29.02" width="23.21" height="1.88" transform="translate(59.97 209.94) rotate(-45)" style="fill:#415b91"/><rect x="290.12" y="18.35" width="1.88" height="23.21" transform="translate(59.97 209.94) rotate(-45)" style="fill:#415b91"/><path d="M283.79,39.11H265.5V20.81h18.29Zm-16.41-1.88h14.53V22.69H267.38Z" transform="translate(-4.1 -4.64)" style="fill:#415b91"/><rect x="263.04" y="29.02" width="23.21" height="1.88" transform="translate(55.16 198.33) rotate(-45)" style="fill:#415b91"/><rect x="273.71" y="18.35" width="1.88" height="23.21" transform="translate(55.16 198.34) rotate(-45)" style="fill:#415b91"/><path d="M267.38,39.11H249.09V20.81h18.29ZM251,37.23H265.5V22.69H251Z" transform="translate(-4.1 -4.64)" style="fill:#415b91"/><path d="M250,39.11H233.61A.94.94,0,0,1,233,37.5l16.41-16.41,1.33,1.33L235.88,37.23h13.76l16.14-16.14,1.33,1.33L250.69,38.83A.92.92,0,0,1,250,39.11Z" transform="translate(-4.1 -4.64)" style="fill:#415b91"/><rect x="257.29" y="18.35" width="1.88" height="23.21" transform="translate(50.35 186.73) rotate(-45)" style="fill:#415b91"/><path d="M317.07,188.94H298.26V170.65h18.81Zm-16.88-1.88h14.94V172.53H300.19Z" transform="translate(-4.1 -4.64)" style="fill:#415b91"/><polygon points="311.32 184.02 294.45 167.61 295.81 166.28 312.69 182.69 311.32 184.02" style="fill:#415b91"/><polygon points="295.81 184.02 294.45 182.69 311.32 166.28 312.69 167.61 295.81 184.02" style="fill:#415b91"/><path d="M317.07,254.6H298.26V236.3h18.81Zm-16.88-1.88h14.94V238.18H300.19Z" transform="translate(-4.1 -4.64)" style="fill:#415b91"/><polygon points="311.32 249.68 294.45 233.26 295.81 231.94 312.69 248.35 311.32 249.68" style="fill:#415b91"/><polygon points="295.81 249.68 294.45 248.35 311.32 231.94 312.69 233.26 295.81 249.68" style="fill:#415b91"/><path d="M317.07,203.8H298.26V185.51h18.81Zm-16.88-1.88h14.94V187.39H300.19Z" transform="translate(-4.1 -4.64)" style="fill:#415b91"/><polygon points="311.32 198.88 294.45 182.47 295.81 181.14 312.69 197.55 311.32 198.88" style="fill:#415b91"/><polygon points="295.81 198.88 294.45 197.55 311.32 181.14 312.69 182.47 295.81 198.88" style="fill:#415b91"/><path d="M317.07,220.21H298.26V201.92h18.81Zm-16.88-1.88h14.94V203.8H300.19Z" transform="translate(-4.1 -4.64)" style="fill:#415b91"/><polygon points="311.32 215.29 294.45 198.88 295.81 197.55 312.69 213.97 311.32 215.29" style="fill:#415b91"/><polygon points="295.81 215.29 294.45 213.97 311.32 197.55 312.69 198.88 295.81 215.29" style="fill:#415b91"/><path d="M317.07,236.63H298.26v-18.3h18.81Zm-16.88-1.88h14.94V220.21H300.19Z" transform="translate(-4.1 -4.64)" style="fill:#415b91"/><polygon points="311.32 231.71 294.45 215.29 295.81 213.97 312.69 230.38 311.32 231.71" style="fill:#415b91"/><polygon points="295.81 231.71 294.45 230.38 311.32 213.97 312.69 215.29 295.81 231.71" style="fill:#415b91"/><path d="M107.19,102.64" transform="translate(-4.1 -4.64)" style="fill:#405b91"/><path d="M107.19,104.2a1.56,1.56,0,0,0,0-3.11,1.56,1.56,0,0,0,0,3.11Z" transform="translate(-4.1 -4.64)" style="fill:#405b91"/><path d="M275.89,70.15" transform="translate(-4.1 -4.64)" style="fill:#405b91"/><path d="M275.89,71.7a1.56,1.56,0,0,0,0-3.11,1.56,1.56,0,0,0,0,3.11Z" transform="translate(-4.1 -4.64)" style="fill:#405b91"/><path d="M345.72,181.46h.69" transform="translate(-4.1 -4.64)" style="fill:#405b91"/><path d="M345.72,183h.69a1.56,1.56,0,1,0,0-3.11h-.69a1.56,1.56,0,0,0,0,3.11Z" transform="translate(-4.1 -4.64)" style="fill:#405b91"/><path d="M45.66,204.28" transform="translate(-4.1 -4.64)" style="fill:#405b91"/><path d="M45.66,205.83a1.56,1.56,0,0,0,0-3.11,1.56,1.56,0,0,0,0,3.11Z" transform="translate(-4.1 -4.64)" style="fill:#405b91"/><path d="M194.31,54.94" transform="translate(-4.1 -4.64)" style="fill:#405b91"/><path d="M194.31,56.49a1.56,1.56,0,0,0,0-3.11,1.56,1.56,0,0,0,0,3.11Z" transform="translate(-4.1 -4.64)" style="fill:#405b91"/></svg>